<svg width="233" height="32" viewBox="0 0 233 32" fill="none" xmlns="http://www.w3.org/2000/svg">
<path d="M21.4689 10.582C19.0268 10.582 17.2772 11.3812 15.8556 13.4155C14.9444 11.6355 13.0855 10.582 10.4975 10.582C8.52925 10.582 6.19646 11.5992 5.28522 13.1975V11.1269H0V29.181H5.54036V18.7917C5.54036 17.1571 6.59741 15.6677 8.52924 15.6677C10.4611 15.6677 11.4452 17.0118 11.4452 18.7191V29.181H16.9127V18.7554C16.9127 17.1571 17.9697 15.6677 19.938 15.6677C21.9063 15.6677 22.8176 17.0118 22.8176 18.7191V29.181H28.1757V17.484C28.1757 12.58 24.8952 10.582 21.4689 10.582Z" fill="#EF3B24"/>
<path d="M55.5632 13.5608V11.1269H50.2051V29.181H55.7454V21.2983C55.7454 17.702 57.7502 16.3942 59.9736 16.3942C60.5204 16.3942 61.1036 16.4306 61.7232 16.5759V11.1269C61.3587 11.018 60.812 10.9453 60.2652 10.9453C58.8072 10.9453 56.5109 11.5265 55.5632 13.5608Z" fill="#EF3B24"/>
<path d="M69.1634 11.127H63.623V29.181H69.1634V11.127Z" fill="#EF3B24"/>
<path d="M79.1868 5.85938H74.2296V8.18425C74.2296 9.85525 73.3184 11.1267 71.423 11.1267H70.5117V15.958H73.7193V23.6955C73.7193 27.2918 76.0156 29.5077 79.77 29.5077C81.5196 29.5077 82.4308 29.1081 82.6495 28.9991V24.422C82.3215 24.4947 81.7747 24.6036 81.1915 24.6036C79.9887 24.6036 79.1868 24.2041 79.1868 22.7147V15.958H82.7224V11.1267H79.1868V5.85938Z" fill="#EF3B24"/>
<path d="M66.3504 1C64.4238 1 62.8174 2.60094 62.8174 4.56255C62.8174 6.52416 64.4238 8.12251 66.3504 8.12251C68.277 8.12251 69.9641 6.52157 69.9641 4.56255C69.9641 2.60354 68.3578 1 66.3504 1Z" fill="#EF3B24"/>
<path d="M39.1235 10.4727C34.3668 10.4727 29.9824 14.2194 29.9824 20.0991C29.9824 25.9787 34.4788 29.8345 39.5297 29.8345C43.6823 29.8345 46.4473 27.7198 47.6189 25.0135L43.0366 23.2802C42.4378 24.3907 41.3495 25.0965 39.6052 25.0965C37.4312 25.0965 35.5488 23.6279 35.4395 21.5703H48.1943C48.2307 21.4613 48.3062 20.6154 48.3062 19.8448C48.3062 13.9677 44.8045 10.4753 39.1261 10.4753M35.5514 17.9714C35.6634 16.6118 36.8428 14.8837 39.2016 14.8837C41.8572 14.8837 42.8153 16.5728 42.8882 17.9714H35.5514Z" fill="#EF3B24"/>
<path d="M91.5769 24.3497L99.8562 15.6677V11.127H85.0185V15.8493V15.9583H92.6808L84.7998 24.3133V29.181H99.9994V24.4223V24.3497H91.5769Z" fill="#EF3B24"/>
<path d="M118.105 12.8594H111.035V24.3242H118.105V19.4805H119.883V27.9766H122.227V11.2773H119.883V17.4883H118.105V12.8594ZM113.359 22.3711V14.832H115.781V22.3711H113.359ZM123.555 28.7969H125.938V11.0234H123.555V28.7969ZM142.915 11.0234H140.434V28.8359H142.915V11.0234ZM128.95 14.5195H134.868V17.3906H128.97V24.6758H130.571C133.813 24.6758 136.46 24.5684 139.38 24.0508L139.165 22.0391C136.557 22.4688 134.263 22.6055 131.548 22.625V19.3633H137.407V12.5078H128.95V14.5195ZM161.767 24.7148H145.498V26.7266H161.767V24.7148ZM146.064 20.3789L147.002 22.3711C150.146 21.8926 152.421 20.457 153.603 18.5234C154.785 20.457 157.06 21.8926 160.224 22.3711L161.181 20.3789C157.148 19.832 155.107 17.6641 154.912 15.5156H160.341V13.5039H154.853V11.2969H152.373V13.5039H146.904V15.5156H152.334C152.119 17.6641 150.088 19.832 146.064 20.3789ZM177.319 11.8242H164.975V13.8164H174.838C174.819 15.0664 174.77 16.4434 174.389 18.2109H162.983V20.2227H179.252V18.2109H176.899C177.329 16.1699 177.329 14.6367 177.319 13.25V11.8242ZM164.916 28.6016H177.26V22.0977H164.916V28.6016ZM167.358 26.6094V24.0508H174.78V26.6094H167.358ZM196.679 18.9922H180.468V21.0039H184.101V23.084C182.948 23.6406 182.323 24.4707 182.323 25.5547C182.323 27.6543 184.657 28.8164 188.554 28.8164C192.392 28.8164 194.726 27.6543 194.745 25.5547C194.736 24.5098 194.15 23.6992 193.085 23.1523V21.0039H196.679V18.9922ZM182.089 14.7539C182.089 16.8633 184.618 18.1328 188.573 18.1328C192.499 18.1328 195.029 16.8633 195.038 14.7539C195.029 12.6055 192.499 11.2969 188.573 11.2969C184.618 11.2969 182.089 12.6055 182.089 14.7539ZM184.687 14.7539C184.667 13.748 186.083 13.2305 188.573 13.2305C191.025 13.2305 192.46 13.748 192.46 14.7539C192.46 15.7305 191.025 16.2383 188.573 16.2383C186.083 16.2383 184.667 15.7305 184.687 14.7539ZM184.863 25.5547C184.853 24.6367 186.093 24.1973 188.554 24.1875C190.966 24.1973 192.236 24.6367 192.245 25.5547C192.236 26.4824 190.966 26.9219 188.554 26.9219C186.093 26.9219 184.853 26.4824 184.863 25.5547ZM186.581 22.4297V21.0039H190.585V22.4395C189.97 22.3516 189.286 22.3125 188.554 22.3125C187.841 22.3125 187.187 22.3516 186.581 22.4297ZM212.172 12.6641H199.633V14.6562H209.691V14.793C209.682 17.1562 209.682 19.6953 209.008 23.1133L211.527 23.3281C212.162 19.6465 212.162 17.2344 212.172 14.793V12.6641ZM197.953 26.4727H214.164V24.4219H197.953V26.4727ZM231.688 19.6172H215.419V21.5898H222.294V23.1328H224.755V21.5898H231.688V19.6172ZM217.411 13.1523H227.216V14.1094H217.45V18.7188H230.048V16.8828H219.93V15.8477H229.716V11.2773H217.411V13.1523ZM217.45 28.6016H229.735V22.3516H227.274V23.8164H219.911V22.3516H217.45V28.6016ZM219.911 26.707V25.6328H227.274V26.707H219.911Z" fill="#141414"/>
</svg>
